<?xml version="1.0" encoding="UTF-8"?>
<svg id="_x32_" xmlns="http://www.w3.org/2000/svg" version="1.1" viewBox="0 0 512 512">
  <!-- Generator: Adobe Illustrator 30.3.0, SVG Export Plug-In . SVG Version: 2.1.3 Build 182)  -->
  <defs>
    <style>
      .st0 {
        fill: #fd0000;
      }

      .st1 {
        fill: #00c7fe;
      }
    </style>
  </defs>
  <path class="st0" d="M511.4,217.7c-1.9-9-8.2-16.5-16.9-19.9l-30.2-11.7v31l5.7,2.2c2.6,1,4.5,3.2,5,6,.6,2.7-.3,5.5-2.2,7.5l-193.8,193.8c-3.8,3.8-9.6,5-14.6,3.1l-43.1-16.7v31l30.2,11.8c17.2,6.7,36.7,2.6,49.7-10.5l202.6-202.6c6.5-6.5,9.3-15.9,7.4-25Z"/>
  <path class="st0" d="M30.9,299.7c1.4-18.9,7.4-43.6,28.5-42.5l192.2,74.8c17.2,6.7,36.8,2.6,49.8-10.6l185.8-187c6.5-6.5,9.3-15.9,7.4-24.9-1.9-9-8.2-16.5-16.8-19.8L286.7,15.4c-17.2-6.7-36.8-2.6-49.8,10.6L21.6,242.5C4.6,256.5,0,282.7,0,305.9s1.5,51,27.8,61.9l-6.2-1.5,57.9,22.5v-20.7c0-3.4.4-6.7,1.1-9.9l-38.9-15.1c-12.4-4.7-12.4-21.5-10.8-43.4Z"/>
  <path class="st1" d="M111,352.7c-4.1,4.1-6.4,9.6-6.4,15.4v96.1l40.8-8.7,50.9,44.4v-96c0-5.8,2.3-11.3,6.4-15.4l16.3-16.3-91.7-35.7-16.3,16.3Z"/>
</svg>