<?xml version="1.0" encoding="UTF-8"?>
<svg id="_x32_" xmlns="http://www.w3.org/2000/svg" version="1.1" viewBox="0 0 512 512">
  <!-- Generator: Adobe Illustrator 30.3.0, SVG Export Plug-In . SVG Version: 2.1.3 Build 182)  -->
  <defs>
    <style>
      .st0 {
        fill: #fd0000;
      }

      .st1 {
        fill: #00c7fe;
      }

      .st2 {
        fill: #3aabd2;
      }
    </style>
  </defs>
  <path class="st2" d="M259.3,135.8c0,3.5,2.8,6.3,6.2,6.3h9.8v5.2c0,3.5,2.8,6.3,6.2,6.3s6.3-2.8,6.3-6.3v-24.4c0-5.3.9-9,2.6-10.6,1.9-2,5.9-2,10.2-1.8h26c3.5,0,6.2-2.8,6.2-6.3s-2.7-6.2-6.2-6.2h-25.9c-6,0-13.5-.1-19,5.4-4.3,4.2-6.3,10.6-6.3,19.6v6.6h-9.8c-3.4,0-6.2,2.9-6.2,6.3Z"/>
  <path class="st0" d="M242.1,86h10.5v8.9c0,3.4,2.8,6.3,6.3,6.3s6.2-2.9,6.2-6.3v-28.4c0-3.5-2.8-6.3-6.2-6.3s-6.3,2.8-6.3,6.3v6.9h-10.5c-3.4,0-6.2,2.9-6.2,6.2,0,3.5,2.8,6.3,6.2,6.3Z"/>
  <path class="st0" d="M271.2,175.3h-53.3c-7.9,0-13.6-1.7-16.9-5.2-5.3-5.6-4.9-15.5-4.5-23.6,0-1.9.2-3.7.2-5.3,0-3.5-2.8-6.3-6.2-6.3s-6.3,2.8-6.3,6.3,0,3.1-.2,4.8c-.5,9.2-1.1,23.2,7.8,32.7,5.8,6.1,14.5,9.1,26.1,9.1h53.5c8.5-.1,21.5-.3,28.3,6.4,3.6,3.5,5.3,8.7,5.3,15.7s2.8,6.3,6.2,6.3,6.2-2.9,6.2-6.3c0-10.4-3-18.7-9-24.6-10.6-10.5-27.4-10.2-37.3-10.1Z"/>
  <path class="st0" d="M316.3,140.6c-3.4,0-6.2,2.8-6.2,6.3s2.9,6.3,6.2,6.3h15.5v11.4c0,3.5,2.8,6.3,6.3,6.3s6.2-2.8,6.2-6.3v-11.4h15.9c3.5,0,6.3-2.8,6.3-6.3s-2.8-6.3-6.3-6.3h-43.8Z"/>
  <path class="st2" d="M148.7,92.5h15.8c3.5,0,6.3-2.8,6.3-6.3s-2.8-6.2-6.3-6.2h-15.8c-3.4,0-6.2,2.8-6.2,6.2s2.8,6.3,6.2,6.3Z"/>
  <path class="st1" d="M499.5,335.8l-46-130.2C445.4,90.7,349.8,0,232.9,0S11.8,99,11.8,221.2v69.7c0,122.1,99,221.2,221.2,221.2s185.4-67.2,212.3-159.1h42.2c4.2,0,8.1-2,10.5-5.5,2.4-3.4,3-7.8,1.6-11.7ZM328.8,214.6c2.5,14.2-2.5,37.1-47.1,37.1h-61.7c0,33.7-50.9,25.8-68.8,25.8s-20.8-19.2-17.6-24.2c-55.8-.4-63.7-58.7-50-84.2,5.9-69.2,75.9-118.4,145.5-118.4s85.6,30,95.8,30.9c25,2,59.2,31.3,59.2,65.4,0,34.2-14.2,67.5-55.4,67.5Z"/>
  <path class="st0" d="M108.7,164.6h32.2c5.7,0,9.2-2.3,11.1-4.3,4.9-4.9,4.8-12.2,4.7-16.5v-21.9c0-3.2.6-5.5,1.7-6.6,1.7-1.7,5.8-1.5,9.1-1.4.9,0,1.8,0,2.6,0h40.9s0,0,.2,0c5.2,0,12.6,0,14.6,1.9.1.2.6.5.6,2.1v34.1c0,3.5,2.8,6.3,6.2,6.3s6.2-2.8,6.2-6.3v-34.1c0-5.5-2.4-9-4.3-11-5.8-5.7-15.6-5.7-24.1-5.6h-3.1c-3.3,0-4.2-.5-4.2-.5-.3-.6-.3-2.9-.3-4.4v-18.3c0-3.4-2.7-6.2-6.2-6.2s-6.2,2.8-6.2,6.2v18.2c0,1.6,0,3.3.2,5h-20.6c-.6,0-1.3,0-2.1,0-5-.2-12.6-.4-18.2,4.9-3.6,3.5-5.5,8.7-5.5,15.5v22c0,2.1,0,6.4-1.1,7.5-.5.5-1.8.5-2.2.5h-32.2c-3.4,0-6.2,2.8-6.2,6.3,0,3.5,2.8,6.3,6.2,6.3Z"/>
  <path class="st0" d="M118.3,225h-15.8c-3.5,0-6.3,2.8-6.3,6.2s2.8,6.2,6.3,6.2h15.8c3.5,0,6.3-2.7,6.3-6.2s-2.8-6.2-6.3-6.2Z"/>
  <path class="st2" d="M271.7,208.7h-79.2c-3.5,0-6.2,2.9-6.2,6.3s2.7,6.3,6.2,6.3h42.5v12.5c0,3.5,2.8,6.3,6.2,6.3s6.2-2.8,6.2-6.3v-12.5h24.2c3.4,0,6.3-2.8,6.3-6.3,0-3.4-2.9-6.3-6.3-6.3Z"/>
  <path class="st2" d="M169.8,192.3c0-3.5-2.8-6.3-6.3-6.3h-43.7c-3.5,0-6.3,2.8-6.3,6.3s2.8,6.2,6.3,6.2h2.3v10.2c0,3.5,2.8,6.3,6.2,6.3s6.3-2.7,6.3-6.3v-10.2h28.9c3.4,0,6.3-2.7,6.3-6.2Z"/>
  <path class="st0" d="M187.9,239.6h-21.7v-11.6c0-3.5-2.8-6.3-6.2-6.3s-6.2,2.7-6.2,6.3v11.6h-2.9c-3.4,0-6.2,2.8-6.2,6.3s2.8,6.2,6.2,6.2h37.1c3.4,0,6.2-2.8,6.2-6.2,0-3.5-2.8-6.3-6.2-6.3Z"/>
</svg>