<?xml version="1.0" encoding="UTF-8"?>
<svg id="_x32_" xmlns="http://www.w3.org/2000/svg" version="1.1" viewBox="0 0 512 512">
  <!-- Generator: Adobe Illustrator 30.3.0, SVG Export Plug-In . SVG Version: 2.1.3 Build 182)  -->
  <defs>
    <style>
      .st0 {
        fill: #fd0000;
      }

      .st1 {
        fill: #00c7fe;
      }
    </style>
  </defs>
  <path class="st1" d="M378.4,0h-183.3l-9.3,9.3L57,138.1l-9.3,9.3v278.7c0,47.4,38.5,85.9,85.9,85.9h244.8c47.4,0,85.9-38.5,85.9-85.9V85.9c0-47.4-38.5-85.9-85.9-85.9ZM432.5,426.1c0,29.9-24.2,54.1-54.1,54.1h-244.8c-29.9,0-54.1-24.2-54.1-54.1V160.6h83.7c24.9,0,45.1-20.2,45.1-45.1V31.8h170.1c29.9,0,54.1,24.2,54.1,54.1v340.2h0Z"/>
  <rect class="st0" x="277.4" y="93.2" width="89.4" height="89.4"/>
  <rect class="st0" x="145.2" y="232.6" width="221.6" height="25"/>
  <rect class="st0" x="145.2" y="304.1" width="221.6" height="25"/>
  <rect class="st0" x="145.2" y="375.6" width="221.6" height="25"/>
</svg>