<?xml version="1.0" encoding="UTF-8"?>
<svg id="_x32_" xmlns="http://www.w3.org/2000/svg" version="1.1" viewBox="0 0 512 512">
  <!-- Generator: Adobe Illustrator 30.3.0, SVG Export Plug-In . SVG Version: 2.1.3 Build 182)  -->
  <defs>
    <style>
      .st0 {
        fill: #fd0000;
      }

      .st1 {
        fill: #00c7fe;
      }
    </style>
  </defs>
  <path class="st0" d="M47.3,422.8c-10.9-10.9-17.6-25.9-17.6-42.5v-61.8H0v61.8c0,49.5,40.2,89.7,89.8,89.8h40.5v-29.7h-40.5c-16.6,0-31.5-6.7-42.5-17.6Z"/>
  <path class="st1" d="M85.9,235.9c21.6,0,39.1-17.5,39.1-39.2s-17.5-39.2-39.1-39.2-39.2,17.5-39.2,39.2,17.5,39.2,39.2,39.2Z"/>
  <path class="st1" d="M179.2,369.3h-54.9v-81.8c0-21.2-17.1-38.3-38.3-38.3s-38.3,17.2-38.3,38.3v93.1c0,21.2,17.1,38.3,38.3,38.3s70-.2,70-.2l3.7,56.7c.3,11.6,9.9,20.8,21.5,20.6,11.6-.3,20.8-9.9,20.6-21.5l2.2-80.5c0-13.7-11.1-24.8-24.8-24.8Z"/>
  <path class="st0" d="M482.3,318.6v61.8c0,16.6-6.7,31.5-17.6,42.5-10.9,10.9-25.9,17.6-42.5,17.6h-40.5v29.7h40.5c49.5,0,89.7-40.2,89.8-89.8v-61.8h-29.7Z"/>
  <path class="st1" d="M426.1,235.9c21.6,0,39.2-17.5,39.2-39.2s-17.5-39.2-39.2-39.2-39.1,17.5-39.1,39.2c0,21.6,17.5,39.2,39.1,39.2Z"/>
  <path class="st1" d="M464.4,380.7v-93.1c0-21.2-17.2-38.3-38.3-38.3s-38.3,17.2-38.3,38.3v81.8h-54.9c-13.7,0-24.8,11.1-24.8,24.8l2.2,80.5c-.3,11.6,8.9,21.2,20.6,21.5,11.6.2,21.2-9,21.5-20.6l3.7-56.7s67.2.2,70,.2c21.2,0,38.3-17.2,38.3-38.3Z"/>
  <rect class="st0" x="153.7" y="319" width="212.4" height="36.1"/>
  <rect class="st0" x="244" y="374.5" width="24.7" height="87.5"/>
  <path class="st1" d="M359.6,159.4c0,7.3-2.4,14.1-6.7,20.3-4.3,6.2-10.7,11.6-18.5,15.6l-5.7,2.9,7.4,16.5c-22.4-3.9-43.1-11.1-53.6-15.2h-.2c0,0-.2-.2-.2-.2-14.1-4.4-25-13.1-30.6-23.3l-11.9,6.5c7.6,13.8,21.3,24.2,38,29.6h0c13,5,40.3,14.6,68.9,17.8l11.7,1.3-12.1-27.1c7.1-4.5,13.2-10,17.8-16.6,5.7-8.1,9.1-17.8,9.1-28.1,0-12.8-5.3-24.6-13.8-33.8-8.5-9.3-20.2-16.1-33.7-19.8l-3.6,13c11.3,3.1,20.8,8.8,27.3,15.9,6.6,7.2,10.2,15.6,10.2,24.6Z"/>
  <path class="st0" d="M161.7,156.4l-16.2,36.3,11.7-1.3c40.5-4.5,79.2-18.1,97.6-25.2,17.5-5.6,32.6-15.1,43.4-27.6,11-12.5,17.6-28,17.6-44.8,0-11-2.8-21.5-7.9-30.9-7.5-14.1-20-25.8-35.3-34-15.4-8.2-33.7-12.9-53.4-12.9-26.3,0-50.2,8.4-67.7,22.3-8.8,6.9-16,15.3-21,24.7-5,9.4-7.9,19.9-7.9,30.9,0,14,4.6,27.2,12.5,38.4,6.8,9.6,15.9,17.8,26.7,24.2ZM142.3,69.3c6.1-11.4,16.5-21.4,29.8-28.5,13.3-7.1,29.5-11.4,47.1-11.3,23.4,0,44.4,7.5,59.4,19.4,7.5,5.9,13.4,12.9,17.5,20.5,4.1,7.6,6.3,15.8,6.3,24.5,0,13.2-5.1,25.5-14.2,35.9-9.1,10.4-22.2,18.8-37.7,23.7h-.2c0,0-.2.2-.2.2-15.9,6.2-48.1,17.4-82.4,22.8l11.6-25.9-5.7-2.9c-11.5-5.9-20.9-13.9-27.4-23.1-6.5-9.2-10.1-19.6-10.1-30.6,0-8.7,2.2-16.9,6.3-24.5Z"/>
</svg>